<svg xmlns="http://www.w3.org/2000/svg" viewBox="0 0 512 512">
  <rect width="512" height="512" rx="90" fill="#d50909"/>
  <defs>
    <clipPath id="ic">
      <rect x="40" y="40" width="432" height="432" rx="60"/>
    </clipPath>
  </defs>
  <rect x="40" y="40" width="432" height="432" rx="60" fill="#f5f5f5"/>
  <g clip-path="url(#ic)" stroke="#ccc" stroke-width="3" fill="none">
    <line x1="40" y1="96"  x2="472" y2="96"/>
    <line x1="40" y1="152" x2="472" y2="152"/>
    <line x1="40" y1="208" x2="472" y2="208"/>
    <line x1="40" y1="264" x2="472" y2="264"/>
    <line x1="40" y1="320" x2="472" y2="320"/>
    <line x1="40" y1="376" x2="472" y2="376"/>
    <line x1="40" y1="432" x2="472" y2="432"/>
    <line x1="96"  y1="40" x2="96"  y2="472"/>
    <line x1="152" y1="40" x2="152" y2="472"/>
    <line x1="208" y1="40" x2="208" y2="472"/>
    <line x1="264" y1="40" x2="264" y2="472"/>
    <line x1="320" y1="40" x2="320" y2="472"/>
    <line x1="376" y1="40" x2="376" y2="472"/>
    <line x1="432" y1="40" x2="432" y2="472"/>
  </g>
  <rect x="40" y="40" width="432" height="432" rx="60" fill="none" stroke="#111" stroke-width="8"/>
  <ellipse cx="256" cy="256" r="155" ry="130" fill="white" stroke="#111" stroke-width="6"/>
  <text x="256" y="308" font-family="Arial Black, Arial, sans-serif" font-size="160" font-weight="900" fill="#cc0000" text-anchor="middle">PE</text>
</svg>
